<region> region_label=01_rr1 seq_position=1 key=56 sample=sop_p_01.$EXT volume=-1 tune=-13
<region> region_label=02_rr1 seq_position=1 key=57 sample=sop_p_02.$EXT tune=-11
<region> region_label=03_rr1 seq_position=1 key=58 sample=sop_p_03.$EXT volume=-1 tune=-13
<region> region_label=04_rr1 seq_position=1 key=59 sample=sop_p_04.$EXT volume=-1 tune=-10
<region> region_label=05_rr1 seq_position=1 key=60 sample=sop_p_05.$EXT tune=2
<region> region_label=06_rr1 seq_position=1 key=61 sample=sop_p_06.$EXT tune=-2
<region> region_label=07_rr1 seq_position=1 key=62 sample=sop_p_07.$EXT tune=-6
<region> region_label=08_rr1 seq_position=1 key=63 sample=sop_p_08.$EXT tune=-8
<region> region_label=09_rr1 seq_position=1 key=64 sample=sop_p_09.$EXT volume=-2 tune=-6
<region> region_label=10_rr1 seq_position=1 key=65 sample=sop_p_10.$EXT tune=-9
<region> region_label=11_rr1 seq_position=1 key=66 sample=sop_p_11.$EXT volume=1 tune=-3
<region> region_label=12_rr1 seq_position=1 key=67 sample=sop_p_12.$EXT tune=-7
<region> region_label=13_rr1 seq_position=1 key=68 sample=sop_p_13.$EXT tune=-14
<region> region_label=14_rr1 seq_position=1 key=69 sample=sop_p_14.$EXT tune=-12
<region> region_label=15_rr1 seq_position=1 key=70 sample=sop_p_15.$EXT tune=-16
<region> region_label=16_rr1 seq_position=1 key=71 sample=sop_p_16.$EXT volume=1 tune=-8
<region> region_label=17_rr1 seq_position=1 key=72 sample=sop_p_17.$EXT volume=-2 tune=-21
<region> region_label=18_rr1 seq_position=1 key=73 sample=sop_p_18.$EXT volume=1 tune=-21
<region> region_label=19_rr1 seq_position=1 key=74 sample=sop_p_19.$EXT volume=0.5 tune=-18
<region> region_label=20_rr1 seq_position=1 key=75 sample=sop_p_20.$EXT tune=-18
<region> region_label=21_rr1 seq_position=1 key=76 sample=sop_p_21.$EXT tune=-17
<region> region_label=22_rr1 seq_position=1 key=77 sample=sop_p_22.$EXT tune=-24
<region> region_label=23_rr1 seq_position=1 key=78 sample=sop_p_23.$EXT tune=-17
<region> region_label=24_rr1 seq_position=1 key=79 sample=sop_p_24.$EXT tune=-21
<region> region_label=25_rr1 seq_position=1 key=80 sample=sop_p_25.$EXT tune=-16
<region> region_label=26_rr1 seq_position=1 key=81 sample=sop_p_26.$EXT volume=-2 tune=-28
<region> region_label=27_rr1 seq_position=1 key=82 sample=sop_p_27.$EXT volume=-1.5 tune=-26
<region> region_label=28_rr1 seq_position=1 key=83 sample=sop_p_28.$EXT volume=-2 tune=-37
<region> region_label=29_rr1 seq_position=1 key=84 sample=sop_p_29.$EXT volume=-2 tune=-39
<region> region_label=30_rr1 seq_position=1 key=85 sample=sop_p_30.$EXT tune=-32
<region> region_label=31_rr1 seq_position=1 key=86 sample=sop_p_31.$EXT volume=1 tune=-34
<region> region_label=32_rr1 seq_position=1 key=87 sample=sop_p_32.$EXT tune=-35
<region> region_label=33_rr1 seq_position=1 key=88 sample=sop_p_33.$EXT volume=-1.5 tune=-15